<?xml version="1.0" encoding="UTF-8"?>
<svg version="1.1" xmlns="http://www.w3.org/2000/svg" width="1536" height="1024">
<path d="M0 0 C506.88 0 1013.76 0 1536 0 C1536 337.92 1536 675.84 1536 1024 C1029.12 1024 522.24 1024 0 1024 C0 686.08 0 348.16 0 0 Z " fill="#EEEEF0" transform="translate(0,0)"/>
<path d="M0 0 C1.72781764 0.03016464 3.45568654 0.05752888 5.18359375 0.08203125 C9.37368546 0.14745173 13.56126151 0.25060097 17.75 0.375 C17.9766333 1.52500488 18.2032666 2.67500977 18.43676758 3.85986328 C19.28350374 8.14434541 20.14164641 12.42647759 21.00317383 16.70800781 C21.37378225 18.55797633 21.74133456 20.40855992 22.10571289 22.25976562 C22.63136667 24.92747648 23.16813506 27.59274923 23.70703125 30.2578125 C23.86653763 31.07992218 24.02604401 31.90203186 24.19038391 32.74905396 C25.30115132 38.16856939 26.55522694 43.22129338 30.62890625 47.21875 C34.52579793 49.34302244 38.45495444 49.07580711 42.75 48.375 C46.10288313 46.77223654 46.10288313 46.77223654 47.75 43.375 C48.7061273 35.30306243 47.03118776 27.47509451 45.3125 19.625 C44.8538108 17.4638929 44.39673417 15.30244279 43.94140625 13.140625 C43.63505249 11.72958496 43.63505249 11.72958496 43.32250977 10.29003906 C42.67761665 7.00644682 42.22324127 3.68768892 41.75 0.375 C78.05 0.375 114.35 0.375 151.75 0.375 C154.06 11.595 156.37 22.815 158.75 34.375 C160.79969031 43.58373528 160.79969031 43.58373528 163.9375 47 C167.68237099 48.83082582 170.65740041 49.06262301 174.75 48.375 C177.62579267 47.12465536 179.19980928 46.23715452 180.88671875 43.59375 C184.3293231 34.7457895 179.43207263 21.44542287 177.47827148 12.60253906 C177.14678101 11.09578613 177.14678101 11.09578613 176.80859375 9.55859375 C176.60548584 8.65681396 176.40237793 7.75503418 176.19311523 6.82592773 C175.75 4.375 175.75 4.375 175.75 0.375 C204.77071611 -0.57613906 204.77071611 -0.57613906 215.8984375 9.10546875 C222.63981168 17.36862993 224.23488593 26.28913371 225.9375 36.5625 C226.2218222 38.19946711 226.50809698 39.83609607 226.79614258 41.47241211 C227.26522766 44.13982261 227.7327405 46.80744043 228.19438171 49.47615051 C230.12573701 60.63476684 232.2071987 71.76544586 234.27944946 82.89859009 C234.92114693 86.34955534 235.56007933 89.80101998 236.19799805 93.25268555 C238.07873936 103.42278778 239.97616609 113.58895535 241.92578125 123.74609375 C243.09229 129.82817481 244.19204397 135.91122607 245.18164062 142.02490234 C246.66479797 150.76712101 248.36024089 159.47358457 250 168.1875 C250.40521224 170.346269 250.81040414 172.50504182 251.21557617 174.66381836 C253.45798197 186.5963382 255.73661822 198.52100204 258.0625 210.4375 C258.96266191 215.08250725 259.85745278 219.72852439 260.75 224.375 C260.96027832 225.46039062 261.17055664 226.54578125 261.38720703 227.6640625 C266.92574975 256.50132056 266.92574975 256.50132056 263.1875 264.875 C250.41154643 277.97854213 232.8786809 277.64966327 215.43359375 279.7734375 C204.80691043 281.08612424 194.21204431 282.56425263 183.62097168 284.13638306 C178.50334039 284.89595495 173.38444405 285.64691865 168.265625 286.3984375 C167.18895569 286.55667496 166.11228638 286.71491241 165.00299072 286.87794495 C156.54136831 288.11895446 148.07616696 289.33386527 139.609375 290.5390625 C138.3474231 290.71873062 137.08547119 290.89839874 135.78527832 291.08351135 C130.80625618 291.79187907 125.82714115 292.49957335 120.84765625 293.2046814 C117.39306273 293.6938831 113.93870866 294.18474859 110.484375 294.67578125 C109.47372986 294.81823273 108.46308472 294.9606842 107.42181396 295.10745239 C101.41567419 295.96249703 95.4334094 296.91871615 89.45153809 297.92915344 C86.19143819 298.46718188 82.92585794 298.92080948 79.6484375 299.33984375 C77.81466553 299.57779663 77.81466553 299.57779663 75.94384766 299.82055664 C74.05351807 300.0640686 74.05351807 300.0640686 72.125 300.3125 C63.85202882 301.39006126 55.59324059 302.49257719 47.375 303.9375 C40.43726899 305.14248302 33.48206015 306.14847895 26.5 307.0625 C25.54174316 307.19406494 24.58348633 307.32562988 23.59619141 307.46118164 C20.64945745 307.83499101 17.71008251 308.12820849 14.75 308.375 C13.6347998 308.4682959 12.51959961 308.5615918 11.37060547 308.65771484 C2.0575551 309.07768728 -4.40028454 306.8177612 -12.625 302.625 C-13.84284241 302.02905336 -15.06186326 301.43550959 -16.28198242 300.84423828 C-19.955082 299.05431337 -23.60229545 297.21612218 -27.25 295.375 C-29.36264193 294.32423444 -31.47589067 293.27468776 -33.58984375 292.2265625 C-37.53047139 290.26740381 -41.46076917 288.28915924 -45.38671875 286.30078125 C-49.44518225 284.25683748 -53.52994354 282.28392828 -57.64453125 280.35546875 C-58.68891357 279.8651416 -59.7332959 279.37481445 -60.80932617 278.86962891 C-62.7915801 277.94361939 -64.77722324 277.0248157 -66.7668457 276.11474609 C-72.93892068 273.228624 -78.1623765 270.47044174 -82.0625 264.6875 C-84.62189573 257.54813297 -84.41941017 251.31100503 -83.11328125 243.88671875 C-82.98189255 243.12040634 -82.85050385 242.35409393 -82.71513367 241.56455994 C-80.61736481 229.51914918 -78.26784989 217.51826094 -75.96071243 205.51160049 C-74.73517255 199.12834204 -73.51656892 192.74375249 -72.296875 186.359375 C-72.16279299 185.65789148 -72.02871098 184.95640797 -71.89056587 184.23366737 C-69.65935391 172.55865867 -67.46981998 160.87638542 -65.3125 149.1875 C-62.95784952 136.43688156 -60.55497459 123.69590065 -58.1171875 110.9609375 C-57.97827213 110.2351116 -57.83935677 109.5092857 -57.69623184 108.76146507 C-56.26765821 101.29858749 -54.8366532 93.83618173 -53.40135384 86.37459469 C-49.60377616 66.62920158 -49.60377616 66.62920158 -46 46.84765625 C-45.83854996 45.94194382 -45.67709991 45.03623138 -45.51075745 44.10307312 C-44.80085636 40.11510554 -44.10255832 36.12593266 -43.42944336 32.1315918 C-41.52039462 21.11738984 -38.41907616 11.47436846 -28.95996094 4.74609375 C-19.41603586 -0.71148577 -10.6424295 -0.32572595 0 0 Z " fill="#9481E2" transform="translate(677.25,381.625)"/>
<path d="M0 0 C1.10859375 0.00322266 2.2171875 0.00644531 3.359375 0.00976562 C4.50148438 0.01814453 5.64359375 0.02652344 6.8203125 0.03515625 C8.56828125 0.04192383 8.56828125 0.04192383 10.3515625 0.04882812 C13.21619895 0.06056844 16.08072883 0.07699055 18.9453125 0.09765625 C17.80798689 3.13052454 16.56723327 5.73197967 14.89962387 8.52981567 C12.19040638 13.95927377 12.38488092 19.21838945 12.42633057 25.18310547 C12.41882931 26.38642171 12.41132806 27.58973795 12.4035995 28.82951832 C12.3868639 32.1524063 12.38787258 35.47441653 12.39650702 38.79727721 C12.40146413 42.38685733 12.38335179 45.97633143 12.36808777 49.56587219 C12.34480194 55.77924048 12.33602606 61.99249214 12.33719635 68.2059021 C12.33886726 77.18934301 12.31851384 86.17262869 12.29284105 95.15602815 C12.25178107 109.73210365 12.22845248 124.30815118 12.21630859 138.88427734 C12.20447618 153.0408802 12.18427187 167.19743043 12.15283203 181.35400391 C12.15089593 182.22709182 12.14895983 183.10017974 12.14696506 183.99972486 C12.13720032 188.37989298 12.12727124 192.76006071 12.11726046 197.14022827 C12.03446637 233.45934644 11.98046295 269.77846227 11.9453125 306.09765625 C8.58387927 304.99169506 5.32223937 303.90994461 2.14428711 302.34863281 C1.11265442 301.8453093 1.11265442 301.8453093 0.06018066 301.33181763 C-0.66995239 300.97095062 -1.40008545 300.61008362 -2.15234375 300.23828125 C-2.93170288 299.85703094 -3.71106201 299.47578064 -4.51403809 299.08297729 C-7.05020446 297.8414707 -9.58377556 296.59477268 -12.1171875 295.34765625 C-15.63732196 293.61966711 -19.15843125 291.89367056 -22.6796875 290.16796875 C-23.99774132 289.52134781 -23.99774132 289.52134781 -25.34242249 288.86166382 C-30.83358775 286.17173048 -36.34101991 283.51954448 -41.8671875 280.90234375 C-43.19916153 280.26925655 -44.53111215 279.6361201 -45.86303711 279.00292969 C-48.30264453 277.84365947 -50.74639305 276.6950924 -53.19360352 275.55175781 C-68.04823121 268.48408694 -68.04823121 268.48408694 -71.0546875 260.09765625 C-72.57096507 254.16184094 -71.9669422 248.57194051 -70.91796875 242.609375 C-70.78658005 241.84306259 -70.65519135 241.07675018 -70.51982117 240.28721619 C-68.42205231 228.24180543 -66.07253739 216.24091719 -63.76539993 204.23425674 C-62.53986005 197.85099829 -61.32125642 191.46640874 -60.1015625 185.08203125 C-59.96748049 184.38054773 -59.83339848 183.67906422 -59.69525337 182.95632362 C-57.46404141 171.28131492 -55.27450748 159.59904167 -53.1171875 147.91015625 C-50.76253702 135.15953781 -48.35966209 122.4185569 -45.921875 109.68359375 C-45.78295963 108.95776785 -45.64404427 108.23194195 -45.50091934 107.48412132 C-44.07234571 100.02124374 -42.6413407 92.55883798 -41.20604134 85.09725094 C-37.40846366 65.35185783 -37.40846366 65.35185783 -33.8046875 45.5703125 C-33.64323746 44.66460007 -33.48178741 43.75888763 -33.31544495 42.82572937 C-32.60554386 38.83776179 -31.90724582 34.84858891 -31.23413086 30.85424805 C-29.38361697 20.17566122 -26.37925692 10.55388178 -17.32421875 3.80859375 C-11.76614637 0.39767958 -6.38351073 -0.03290469 0 0 Z " fill="#6150B4" transform="translate(665.0546875,382.90234375)"/>
<path d="M0 0 C1.64140995 1.37649885 3.26672583 2.7724276 4.875 4.1875 C5.6484375 4.86554688 6.421875 5.54359375 7.21875 6.2421875 C19.33223706 17.56746821 27.51405596 33.79525437 29.875 50.1875 C29.875 53.1575 29.875 56.1275 29.875 59.1875 C21.955 59.1875 14.035 59.1875 5.875 59.1875 C5.215 55.8875 4.555 52.5875 3.875 49.1875 C0.14162552 35.61641837 -7.24770063 24.28615322 -19.56640625 17.2109375 C-33.29921533 9.99406687 -48.56002974 7.14757728 -63.75 11.75 C-68.64638303 13.6849729 -72.79458994 16.41528699 -76.96875 19.6015625 C-79.125 21.1875 -79.125 21.1875 -81.34375 22.28515625 C-83.72471927 23.49130516 -84.02702135 24.7856717 -85.125 27.1875 C-86.04925781 28.31091797 -86.04925781 28.31091797 -86.9921875 29.45703125 C-93.90339687 38.30489819 -96.75358588 48.21618707 -98.125 59.1875 C-106.045 59.1875 -113.965 59.1875 -122.125 59.1875 C-123.2543532 39.31088372 -115.21362882 22.66687501 -102.47802734 7.68164062 C-76.07357066 -21.4766551 -30.42066077 -23.38269968 0 0 Z " fill="#7361C2" transform="translate(819.125,320.8125)"/>
<path d="M0 0 C7.92 0 15.84 0 24 0 C24.33773437 1.711875 24.67546875 3.42375 25.0234375 5.1875 C25.4738548 7.45835387 25.9243814 9.72918606 26.375 12 C26.59671875 13.12535156 26.8184375 14.25070312 27.046875 15.41015625 C28.44932853 22.46735713 28.44932853 22.46735713 30.1328125 29.4609375 C31.46644109 34.90358392 32.55695348 40.80640645 30.0078125 46.03515625 C27.80396736 48.66856442 25.94698973 49.79160097 22.5859375 50.53125 C18.27018476 50.79202056 14.98551644 50.49498079 11.5 47.8125 C7.35887862 43.15373845 6.45564264 38.0260698 5.2734375 32.03125 C5.12089508 31.27332153 4.96835266 30.51539307 4.81118774 29.73449707 C4.49122749 28.13808588 4.17367614 26.54119021 3.85839844 24.94384766 C3.37631391 22.50664254 2.88400159 20.07166 2.390625 17.63671875 C2.08011247 16.08085212 1.77019649 14.52486628 1.4609375 12.96875 C1.31409515 12.24465942 1.16725281 11.52056885 1.01596069 10.77453613 C0.28735214 7.04559716 0 3.83974692 0 0 Z " fill="#F4F4F6" transform="translate(695,381)"/>
</svg>